<svg width="192" height="192" viewBox="0 0 192 192" fill="none" xmlns="http://www.w3.org/2000/svg">
<g clip-path="url(#clip0_207_18)">
<path d="M17.303 5.58372C13.2493 16.4024 14.9383 141.34 19.3298 145.877C21.6945 148.32 31.8287 150.065 42.3007 150.065H61.5557L86.1803 150.065C112.922 150.065 113.487 148.187 115.943 145.877C115.943 145.877 119.996 139.901 119.996 118.621V39.4356V23.7311C119.996 15.3554 118.307 6.63069 115.943 4.18777C113.24 1.39586 97.0254 -9.15527e-05 65.6094 -9.15527e-05C26.4238 -9.15527e-05 18.992 0.697891 17.303 5.58372Z" fill="#890F67"/>
<path d="M74.257 39.9639C69.3735 50.4342 61.3327 175.124 65.3577 179.989C67.5251 182.609 77.4927 185.137 87.9329 185.952L107.13 187.451L131.679 189.368C158.34 191.449 159.05 189.622 161.677 187.509C161.677 187.509 166.184 181.867 167.84 160.651L174.004 81.7064L175.226 66.0495C175.878 57.6992 174.873 48.8695 172.706 46.2499C170.229 43.2561 154.172 40.6023 122.851 38.157C83.7847 35.1069 76.3212 35.2243 74.257 39.9639Z" fill="#5B18B0"/>
</g>
<defs>
<clipPath id="clip0_207_18">
<rect width="192" height="192" fill="white"/>
</clipPath>
</defs>
</svg>
